<?xml version="1.0" encoding="UTF-8" standalone="no"?>
<svg xmlns:dc="http://purl.org/dc/elements/1.1/" xmlns:cc="http://creativecommons.org/ns#" xmlns:rdf="http://www.w3.org/1999/02/22-rdf-syntax-ns#" xmlns:svg="http://www.w3.org/2000/svg" xmlns="http://www.w3.org/2000/svg" xmlns:xlink="http://www.w3.org/1999/xlink" xmlns:sodipodi="http://sodipodi.sourceforge.net/DTD/sodipodi-0.dtd" xmlns:inkscape="http://www.inkscape.org/namespaces/inkscape" version="1.0" width="620" height="620" viewBox="0 0 62 62" id="svg0" sodipodi:version="0.32" inkscape:version="0.46" sodipodi:docname="Ambox_clock.svg" inkscape:output_extension="org.inkscape.output.svg.inkscape" sodipodi:docbase="C:\Documents and Settings\KevinDuke\Desktop">
  <metadata id="metadata19">
    <rdf:RDF>
      <cc:Work rdf:about="">
        <dc:format>image/svg+xml</dc:format>
        <dc:type rdf:resource="http://purl.org/dc/dcmitype/StillImage"/>
      </cc:Work>
    </rdf:RDF>
  </metadata>
  <sodipodi:namedview inkscape:window-height="750" inkscape:window-width="1280" inkscape:pageshadow="2" inkscape:pageopacity="0.0" guidetolerance="10.0" gridtolerance="10.0" objecttolerance="10.0" borderopacity="1.0" bordercolor="#666666" pagecolor="#ffffff" id="base" inkscape:zoom="0.4499252" inkscape:cx="769.52367" inkscape:cy="196.36533" inkscape:window-x="-8" inkscape:window-y="-8" inkscape:current-layer="svg0" showguides="true" inkscape:guide-bbox="true" showgrid="false"/>
  <defs id="defs4">
    <inkscape:perspective sodipodi:type="inkscape:persp3d" inkscape:vp_x="0 : 310 : 1" inkscape:vp_y="0 : 1000 : 0" inkscape:vp_z="620 : 310 : 1" inkscape:persp3d-origin="310 : 206.66667 : 1" id="perspective117"/>
    <linearGradient spreadMethod="pad" xlink:href="#fieldGradient" gradientUnits="userSpaceOnUse" id="linearGradient21219" y2="16.248501" x2="9.5471001" y1="41.179295" x1="54.509937">
      <stop offset="0" style="stop-color:#3e79ca;stop-opacity:1;" id="stop21221"/>
      <stop offset="1" style="stop-color:#36a8ff;stop-opacity:1;" id="stop21223"/>
    </linearGradient>
    <radialGradient id="radialGradient20242">
      <stop offset="0" style="stop-color:#000000;stop-opacity:0.31182796;" id="stop20244"/>
      <stop offset="0.88" style="stop-color:#000000;stop-opacity:0.60573477;" id="stop20246"/>
      <stop offset="1" style="stop-color:#000000;stop-opacity:0;" id="stop20248"/>
    </radialGradient>
    <linearGradient id="linearGradient17267">
      <stop id="stop17269" offset="0" style="stop-color:#4ec20e;stop-opacity:1;"/>
      <stop id="stop17271" offset="1" style="stop-color:#2ab907;stop-opacity:1;"/>
    </linearGradient>
    <radialGradient inkscape:collect="always" xlink:href="#linearGradient17267" id="radialGradient17265" cx="27.293375" cy="22.184755" fx="27.293375" fy="22.184755" r="25.796875" gradientTransform="matrix(0.7383772,-1.1352882,0.7527133,0.4895553,-5.4921904,38.937284)" gradientUnits="userSpaceOnUse"/>
    <linearGradient x1="55.454102" y1="42.752899" x2="9.5471001" y2="16.248501" id="linearGradient4174" xlink:href="#edgeGradient" gradientUnits="userSpaceOnUse"/>
    <linearGradient x1="42.986301" y1="7.0127001" x2="22.014400" y2="51.987099" id="linearGradient4172" xlink:href="#fieldGradient" gradientUnits="userSpaceOnUse"/>
    <radialGradient cx="32.500000" cy="29.500000" r="26.500000" fx="32.500000" fy="29.500000" id="radialGradient4170" xlink:href="#shadowGradient" gradientUnits="userSpaceOnUse"/>
    <radialGradient id="shadowGradient">
      <stop id="stop17" style="stop-color:#c0c0c0;stop-opacity:1" offset="0"/>
      <stop id="stop19" style="stop-color:#c0c0c0;stop-opacity:1" offset="0.88"/>
      <stop id="stop21" style="stop-color:#c0c0c0;stop-opacity:0" offset="1"/>
    </radialGradient>
    <linearGradient x1="52.778114" y1="-13.238551" x2="22.0144" y2="51.987099" id="fieldGradient" gradientUnits="userSpaceOnUse">
      <stop id="stop7" style="stop-color:#d8ebff;stop-opacity:1;" offset="0"/>
      <stop id="stop9" style="stop-color:#4fa9ff;stop-opacity:1;" offset="1"/>
    </linearGradient>
    <linearGradient x1="54.509937" y1="41.179295" x2="9.5471001" y2="16.248501" id="edgeGradient" gradientUnits="userSpaceOnUse" xlink:href="#fieldGradient" spreadMethod="pad">
      <stop id="stop12" style="stop-color:#2b79e0;stop-opacity:1;" offset="0"/>
      <stop id="stop14" style="stop-color:#008df7;stop-opacity:1;" offset="1"/>
    </linearGradient>
    <defs id="defs3242">
      <circle r="51.375" cy="61.875" cx="61.625" id="SVGID_5_" sodipodi:cx="61.625" sodipodi:cy="61.875" sodipodi:rx="51.375" sodipodi:ry="51.375"/>
    </defs>
    <clipPath id="SVGID_6_">
      <use id="use3246" overflow="visible" xlink:href="#SVGID_5_" style="overflow:visible" x="0" y="0" width="62" height="62"/>
    </clipPath>
    <linearGradient gradientTransform="matrix(1,0,0,-1,0,-538)" y2="-652.24951" x2="61.6255" y1="-551.25" x1="61.6255" gradientUnits="userSpaceOnUse" id="SVGID_7_">
      <stop id="stop3249" style="stop-color:#FFFFFF" offset="0"/>
      <stop id="stop3251" style="stop-color:#E1F1FF" offset="0.1478"/>
      <stop id="stop3253" style="stop-color:#D4EBFF" offset="0.2363"/>
      <stop id="stop3255" style="stop-color:#E3F2FF" offset="0.3505"/>
      <stop id="stop3257" style="stop-color:#F3F9FF" offset="0.5264"/>
      <stop id="stop3259" style="stop-color:#FCFEFF" offset="0.7262"/>
      <stop id="stop3261" style="stop-color:#FFFFFF" offset="1"/>
    </linearGradient>
    <defs id="defs3271">
      <circle r="51.375" cy="61.875" cx="61.625" id="SVGID_8_" sodipodi:cx="61.625" sodipodi:cy="61.875" sodipodi:rx="51.375" sodipodi:ry="51.375"/>
    </defs>
    <clipPath id="SVGID_9_">
      <use id="use3275" overflow="visible" xlink:href="#SVGID_8_" style="overflow:visible" x="0" y="0" width="62" height="62"/>
    </clipPath>
    <linearGradient gradientTransform="translate(0,-665)" y2="728.875" x2="107.833" y1="728.875" x1="10.25" gradientUnits="userSpaceOnUse" id="SVGID_10_">
      <stop id="stop3278" style="stop-color:#FFFFFF" offset="0"/>
      <stop id="stop3280" style="stop-color:#EDF7FF" offset="0.1435"/>
      <stop id="stop3282" style="stop-color:#E0F2FF" offset="0.2802"/>
      <stop id="stop3284" style="stop-color:#E3F3FF" offset="0.3063"/>
      <stop id="stop3286" style="stop-color:#F3FAFF" offset="0.4942"/>
      <stop id="stop3288" style="stop-color:#FCFEFF" offset="0.7076"/>
      <stop id="stop3290" style="stop-color:#FFFFFF" offset="1"/>
    </linearGradient>
    <radialGradient id="SVGID_3_" cx="61.833" cy="-600.16602" r="53.000999" gradientTransform="matrix(1,0,0,-1,0,-538)" gradientUnits="userSpaceOnUse">
      <stop offset="0.95050001" style="stop-color:#3c6bf3;stop-opacity:1;" id="stop3227"/>
      <stop offset="1" style="stop-color:#3c8af2;stop-opacity:1;" id="stop3229"/>
    </radialGradient>
    <linearGradient inkscape:collect="always" xlink:href="#edgeGradient" id="linearGradient17291" gradientUnits="userSpaceOnUse" x1="55.454102" y1="42.752899" x2="9.5471001" y2="16.248501"/>
    <linearGradient inkscape:collect="always" xlink:href="#SVGID_7_" id="linearGradient2440" gradientUnits="userSpaceOnUse" gradientTransform="matrix(1,0,0,-1,0,-538)" x1="61.6255" y1="-551.25" x2="61.6255" y2="-652.24951"/>
    <linearGradient id="SVGID_13_" gradientUnits="userSpaceOnUse" x1="62.4063" y1="-595" x2="62.4063" y2="-603.18707" gradientTransform="matrix(1,0,0,-1,0,-538)">
      <stop offset="0" style="stop-color:#8BA4D6" id="stop3535"/>
      <stop offset="1" style="stop-color:#1B3EA6" id="stop3537"/>
    </linearGradient>
    <linearGradient id="SVGID_11_" gradientUnits="userSpaceOnUse" x1="-160.0361" y1="-726.61621" x2="-160.0361" y2="-729.13458" gradientTransform="matrix(0.4699332,4.7413678e-2,8.0740375e-2,-0.2759618,171.41242,-150.97698)">
      <stop offset="0" style="stop-color:#524AC9" id="stop3506"/>
      <stop offset="0.0957" style="stop-color:#5855BC" id="stop3508"/>
      <stop offset="0.2352" style="stop-color:#5D60AF" id="stop3510"/>
      <stop offset="0.3681" style="stop-color:#5F64AB" id="stop3512"/>
      <stop offset="0.7253" style="stop-color:#190C7F" id="stop3514"/>
    </linearGradient>
    <linearGradient id="SVGID_12_" gradientUnits="userSpaceOnUse" x1="-915.77289" y1="-785.93951" x2="-915.77289" y2="-789.15601" gradientTransform="matrix(0.1444826,-0.2594453,-0.2594453,-0.1444826,-26.436133,-312.62999)">
      <stop offset="0" style="stop-color:#524AC9" id="stop3519"/>
      <stop offset="0.0957" style="stop-color:#5855BC" id="stop3521"/>
      <stop offset="0.2352" style="stop-color:#5D60AF" id="stop3523"/>
      <stop offset="0.3681" style="stop-color:#5F64AB" id="stop3525"/>
      <stop offset="0.7253" style="stop-color:#190C7F" id="stop3527"/>
    </linearGradient>
    <radialGradient r="25.796875" fy="21.770895" fx="24.112741" cy="21.770895" cx="24.112741" gradientTransform="matrix(0.382526,-1.3439084,1.0992837,0.3207092,-11.729592,45.423975)" gradientUnits="userSpaceOnUse" id="radialGradient2279" xlink:href="#linearGradient17267" inkscape:collect="always"/>
    <linearGradient gradientTransform="matrix(0.1444826,-0.2594453,-0.2594453,-0.1444826,-26.436133,-312.62999)" y2="-789.15601" x2="-915.77289" y1="-785.93951" x1="-915.77289" gradientUnits="userSpaceOnUse" id="linearGradient3319">
      <stop id="stop3321" style="stop-color:#524AC9" offset="0"/>
      <stop id="stop3323" style="stop-color:#5855BC" offset="0.0957"/>
      <stop id="stop3325" style="stop-color:#5D60AF" offset="0.2352"/>
      <stop id="stop3327" style="stop-color:#5F64AB" offset="0.3681"/>
      <stop id="stop3329" style="stop-color:#190C7F" offset="0.7253"/>
    </linearGradient>
    <linearGradient gradientTransform="matrix(0.4699332,4.7413678e-2,8.0740375e-2,-0.2759618,171.41242,-150.97698)" y2="-729.13458" x2="-160.0361" y1="-726.61621" x1="-160.0361" gradientUnits="userSpaceOnUse" id="linearGradient3307">
      <stop id="stop3309" style="stop-color:#524AC9" offset="0"/>
      <stop id="stop3311" style="stop-color:#5855BC" offset="0.0957"/>
      <stop id="stop3313" style="stop-color:#5D60AF" offset="0.2352"/>
      <stop id="stop3315" style="stop-color:#5F64AB" offset="0.3681"/>
      <stop id="stop3317" style="stop-color:#190C7F" offset="0.7253"/>
    </linearGradient>
    <linearGradient gradientTransform="matrix(1,0,0,-1,0,-538)" y2="-603.18707" x2="62.4063" y1="-595" x1="62.4063" gradientUnits="userSpaceOnUse" id="linearGradient3301">
      <stop id="stop3303" style="stop-color:#8BA4D6" offset="0"/>
      <stop id="stop3305" style="stop-color:#1B3EA6" offset="1"/>
    </linearGradient>
    <linearGradient y2="-652.24951" x2="61.6255" y1="-551.25" x1="61.6255" gradientTransform="matrix(1,0,0,-1,0,-538)" gradientUnits="userSpaceOnUse" id="linearGradient3299" xlink:href="#SVGID_7_" inkscape:collect="always"/>
    <linearGradient y2="16.248501" x2="9.5471001" y1="42.752899" x1="55.454102" gradientUnits="userSpaceOnUse" id="linearGradient3297" xlink:href="#edgeGradient" inkscape:collect="always"/>
    <radialGradient gradientUnits="userSpaceOnUse" gradientTransform="matrix(1,0,0,-1,0,-538)" r="53.000999" cy="-600.16602" cx="61.833" id="radialGradient3291">
      <stop id="stop3293" style="stop-color:#3c6bf3;stop-opacity:1;" offset="0.95050001"/>
      <stop id="stop3295" style="stop-color:#3c8af2;stop-opacity:1;" offset="1"/>
    </radialGradient>
    <linearGradient id="linearGradient3274" gradientUnits="userSpaceOnUse" x1="10.25" y1="728.875" x2="107.833" y2="728.875" gradientTransform="translate(0,-665)">
      <stop offset="0" style="stop-color:#FFFFFF" id="stop3276"/>
      <stop offset="0.1435" style="stop-color:#EDF7FF" id="stop3279"/>
      <stop offset="0.2802" style="stop-color:#E0F2FF" id="stop3281"/>
      <stop offset="0.3063" style="stop-color:#E3F3FF" id="stop3283"/>
      <stop offset="0.4942" style="stop-color:#F3FAFF" id="stop3285"/>
      <stop offset="0.7076" style="stop-color:#FCFEFF" id="stop3287"/>
      <stop offset="1" style="stop-color:#FFFFFF" id="stop3289"/>
    </linearGradient>
    <clipPath id="clipPath3270">
      <use height="62" width="62" y="0" x="0" style="overflow:visible" xlink:href="#SVGID_8_" overflow="visible" id="use3272"/>
    </clipPath>
    <defs id="defs3266">
      <circle sodipodi:ry="51.375" sodipodi:rx="51.375" sodipodi:cy="61.875" sodipodi:cx="61.625" id="circle3268" cx="61.625" cy="61.875" r="51.375"/>
    </defs>
    <linearGradient id="linearGradient3249" gradientUnits="userSpaceOnUse" x1="61.6255" y1="-551.25" x2="61.6255" y2="-652.24951" gradientTransform="matrix(1,0,0,-1,0,-538)">
      <stop offset="0" style="stop-color:#FFFFFF" id="stop3252"/>
      <stop offset="0.1478" style="stop-color:#E1F1FF" id="stop3254"/>
      <stop offset="0.2363" style="stop-color:#D4EBFF" id="stop3256"/>
      <stop offset="0.3505" style="stop-color:#E3F2FF" id="stop3258"/>
      <stop offset="0.5264" style="stop-color:#F3F9FF" id="stop3260"/>
      <stop offset="0.7262" style="stop-color:#FCFEFF" id="stop3262"/>
      <stop offset="1" style="stop-color:#FFFFFF" id="stop3264"/>
    </linearGradient>
    <clipPath id="clipPath3244">
      <use height="62" width="62" y="0" x="0" style="overflow:visible" xlink:href="#SVGID_5_" overflow="visible" id="use3247"/>
    </clipPath>
    <defs id="defs3240">
      <circle sodipodi:ry="51.375" sodipodi:rx="51.375" sodipodi:cy="61.875" sodipodi:cx="61.625" id="circle3242" cx="61.625" cy="61.875" r="51.375"/>
    </defs>
    <linearGradient spreadMethod="pad" xlink:href="#fieldGradient" gradientUnits="userSpaceOnUse" id="linearGradient3234" y2="16.248501" x2="9.5471001" y1="41.179295" x1="54.509937">
      <stop offset="0" style="stop-color:#2b79e0;stop-opacity:1;" id="stop3236"/>
      <stop offset="1" style="stop-color:#008df7;stop-opacity:1;" id="stop3238"/>
    </linearGradient>
    <linearGradient gradientUnits="userSpaceOnUse" id="linearGradient3227" y2="51.987099" x2="22.0144" y1="-13.238551" x1="52.778114">
      <stop offset="0" style="stop-color:#d8ebff;stop-opacity:1;" id="stop3230"/>
      <stop offset="1" style="stop-color:#4fa9ff;stop-opacity:1;" id="stop3232"/>
    </linearGradient>
    <radialGradient id="radialGradient3219">
      <stop offset="0" style="stop-color:#c0c0c0;stop-opacity:1" id="stop3221"/>
      <stop offset="0.88" style="stop-color:#c0c0c0;stop-opacity:1" id="stop3223"/>
      <stop offset="1" style="stop-color:#c0c0c0;stop-opacity:0" id="stop3225"/>
    </radialGradient>
    <radialGradient gradientUnits="userSpaceOnUse" xlink:href="#shadowGradient" id="radialGradient3217" fy="29.500000" fx="32.500000" r="26.500000" cy="29.500000" cx="32.500000"/>
    <linearGradient gradientUnits="userSpaceOnUse" xlink:href="#fieldGradient" id="linearGradient3215" y2="51.987099" x2="22.014400" y1="7.0127001" x1="42.986301"/>
    <linearGradient gradientUnits="userSpaceOnUse" xlink:href="#edgeGradient" id="linearGradient3213" y2="16.248501" x2="9.5471001" y1="42.752899" x1="55.454102"/>
    <radialGradient gradientUnits="userSpaceOnUse" gradientTransform="matrix(0.7383772,-1.1352882,0.7527133,0.4895553,-5.4921904,38.937284)" r="25.796875" fy="22.184755" fx="27.293375" cy="22.184755" cx="27.293375" id="radialGradient3211" xlink:href="#linearGradient17267" inkscape:collect="always"/>
    <linearGradient id="linearGradient3205">
      <stop style="stop-color:#49c007;stop-opacity:1;" offset="0" id="stop3207"/>
      <stop style="stop-color:#209305;stop-opacity:1;" offset="1" id="stop3209"/>
    </linearGradient>
    <radialGradient id="radialGradient3197">
      <stop id="stop3199" style="stop-color:#000000;stop-opacity:0.31182796;" offset="0"/>
      <stop id="stop3201" style="stop-color:#000000;stop-opacity:0.60573477;" offset="0.88"/>
      <stop id="stop3203" style="stop-color:#000000;stop-opacity:0;" offset="1"/>
    </radialGradient>
    <linearGradient x1="54.509937" y1="41.179295" x2="9.5471001" y2="16.248501" id="linearGradient3191" gradientUnits="userSpaceOnUse" xlink:href="#fieldGradient" spreadMethod="pad">
      <stop id="stop3193" style="stop-color:#3e79ca;stop-opacity:1;" offset="0"/>
      <stop id="stop3195" style="stop-color:#36a8ff;stop-opacity:1;" offset="1"/>
    </linearGradient>
    <inkscape:perspective id="perspective85" inkscape:persp3d-origin="310 : 206.66667 : 1" inkscape:vp_z="620 : 310 : 1" inkscape:vp_y="0 : 1000 : 0" inkscape:vp_x="0 : 310 : 1" sodipodi:type="inkscape:persp3d"/>
    <linearGradient xlink:href="#fieldGradient" gradientUnits="userSpaceOnUse" id="linearGradient3812" y2="16.248501" x2="9.5471001" y1="41.179295" x1="54.509937">
      <stop offset="0" style="stop-color:#f98433;stop-opacity:1;" id="stop3814"/>
      <stop offset="1" style="stop-color:#e37b00;stop-opacity:1;" id="stop3816"/>
    </linearGradient>
    <linearGradient gradientUnits="userSpaceOnUse" id="linearGradient3806" y2="51.987099" x2="22.0144" y1="-13.238551" x1="52.778114">
      <stop offset="0" style="stop-color:#ffe1b8;stop-opacity:1;" id="stop3808"/>
      <stop offset="1" style="stop-color:#ff8b00;stop-opacity:1;" id="stop3810"/>
    </linearGradient>
    <radialGradient id="radialGradient3798">
      <stop offset="0" style="stop-color:#c0c0c0;stop-opacity:1" id="stop3800"/>
      <stop offset="0.88" style="stop-color:#c0c0c0;stop-opacity:1" id="stop3802"/>
      <stop offset="1" style="stop-color:#c0c0c0;stop-opacity:0" id="stop3804"/>
    </radialGradient>
    <inkscape:perspective id="perspective3795" inkscape:persp3d-origin="310 : 206.66667 : 1" inkscape:vp_z="620 : 310 : 1" inkscape:vp_y="0 : 1000 : 0" inkscape:vp_x="0 : 310 : 1" sodipodi:type="inkscape:persp3d"/>
    <radialGradient inkscape:collect="always" xlink:href="#shadowGradient" id="radialGradient4073" cx="32.5" cy="29.5" fx="32.5" fy="29.5" r="26.5" gradientUnits="userSpaceOnUse"/>
    <linearGradient inkscape:collect="always" xlink:href="#fieldGradient" id="linearGradient4075" gradientUnits="userSpaceOnUse" x1="52.778114" y1="-13.238551" x2="22.0144" y2="51.987099"/>
    <linearGradient inkscape:collect="always" xlink:href="#edgeGradient" id="linearGradient4077" gradientUnits="userSpaceOnUse" spreadMethod="pad" x1="54.509937" y1="41.179295" x2="9.5471001" y2="16.248501"/>
    <linearGradient inkscape:collect="always" xlink:href="#SVGID_7_" id="linearGradient4079" gradientUnits="userSpaceOnUse" gradientTransform="matrix(1,0,0,-1,0,-538)" x1="61.6255" y1="-551.25" x2="61.6255" y2="-652.24951"/>
    <radialGradient inkscape:collect="always" xlink:href="#SVGID_14_" id="radialGradient4087" gradientUnits="userSpaceOnUse" gradientTransform="matrix(1,0,0,-1,0,-538)" cx="61.3652" cy="-595.29199" r="7.5655999"/>
    <linearGradient inkscape:collect="always" xlink:href="#SVGID_7_" id="linearGradient4460" gradientUnits="userSpaceOnUse" gradientTransform="matrix(1,0,0,-1,0,-538)" x1="61.6255" y1="-551.25" x2="61.6255" y2="-652.24951"/>
    <linearGradient inkscape:collect="always" xlink:href="#SVGID_10_" id="linearGradient4462" gradientUnits="userSpaceOnUse" gradientTransform="translate(0,-665)" x1="10.25" y1="728.875" x2="107.833" y2="728.875"/>
    <radialGradient inkscape:collect="always" xlink:href="#SVGID_3_" id="radialGradient4648" gradientUnits="userSpaceOnUse" gradientTransform="matrix(1,0,0,-1,0,-538)" cx="61.833" cy="-600.16602" r="53.000999"/>
    <linearGradient inkscape:collect="always" xlink:href="#SVGID_7_" id="linearGradient4650" gradientUnits="userSpaceOnUse" gradientTransform="matrix(1,0,0,-1,0,-538)" x1="61.6255" y1="-551.25" x2="61.6255" y2="-652.24951"/>
    <linearGradient inkscape:collect="always" xlink:href="#SVGID_10_" id="linearGradient4652" gradientUnits="userSpaceOnUse" gradientTransform="translate(0,-665)" x1="10.25" y1="728.875" x2="107.833" y2="728.875"/>
    <linearGradient inkscape:collect="always" xlink:href="#SVGID_11_" id="linearGradient4654" gradientUnits="userSpaceOnUse" gradientTransform="matrix(0.4699332,4.7413678e-2,8.0740375e-2,-0.2759618,171.41242,-150.97698)" x1="-160.0361" y1="-726.61621" x2="-160.0361" y2="-729.13458"/>
    <linearGradient inkscape:collect="always" xlink:href="#SVGID_12_" id="linearGradient4656" gradientUnits="userSpaceOnUse" gradientTransform="matrix(0.1444826,-0.2594453,-0.2594453,-0.1444826,-26.436133,-312.62999)" x1="-915.77289" y1="-785.93951" x2="-915.77289" y2="-789.15601"/>
    <linearGradient inkscape:collect="always" xlink:href="#SVGID_13_" id="linearGradient4658" gradientUnits="userSpaceOnUse" gradientTransform="matrix(1,0,0,-1,0,-538)" x1="62.4063" y1="-595" x2="62.4063" y2="-603.18707"/>
    <linearGradient inkscape:collect="always" xlink:href="#SVGID_7_" id="linearGradient5796" gradientUnits="userSpaceOnUse" gradientTransform="matrix(1,0,0,-1,0,-538)" x1="61.6255" y1="-551.25" x2="61.6255" y2="-652.24951"/>
    <linearGradient inkscape:collect="always" xlink:href="#SVGID_10_" id="linearGradient5798" gradientUnits="userSpaceOnUse" gradientTransform="translate(0,-665)" x1="10.25" y1="728.875" x2="107.833" y2="728.875"/>
  </defs>
  <path style="opacity:0.1;fill:url(#path3099_1_)" id="path3099" enable-background="new    " d="M 188.38301,80.903553 C 188.38301,86.435553 175.62401,90.923553 159.88701,90.923553 C 144.15101,90.923553 131.39201,86.436553 131.39201,80.903553 C 131.39201,75.369553 144.15101,70.884553 159.88701,70.884553 C 175.62401,70.884553 188.38301,75.369553 188.38301,80.903553 z "/>
  <g id="g5611" transform="matrix(1.5829463,0,0,1.5829463,-38.439205,-36.862078)">
    <circle style="fill:url(#radialGradient4073);stroke:none" id="circle3820" transform="matrix(0.7395312,0,0,0.7395465,19.982376,21.281751)" r="26.5" cy="29.5" cx="32.5" sodipodi:cx="32.5" sodipodi:cy="29.5" sodipodi:rx="26.5" sodipodi:ry="26.5"/>
    <circle transform="matrix(0.6945259,0,0,0.6945259,21.440881,20.527218)" style="fill:url(#linearGradient4075);fill-opacity:1;stroke:url(#linearGradient4077);stroke-width:1.94443798" id="circle3822" r="25.799999" cy="31" cx="31" sodipodi:cx="31" sodipodi:cy="31" sodipodi:rx="25.799999" sodipodi:ry="25.799999"/>
    <g transform="matrix(0.3051273,0,0,0.3051273,24.136393,23.071402)" id="Layer_6">
      <g id="g3224">
        <radialGradient gradientUnits="userSpaceOnUse" gradientTransform="matrix(1,0,0,-1,0,-538)" r="53.000999" cy="-600.16602" cx="61.833" id="radialGradient3827">
          <stop id="stop3829" style="stop-color:#F3843C" offset="0.9505"/>
          <stop id="stop3831" style="stop-color:#F2673C" offset="1"/>
        </radialGradient>
        <circle id="circle3833" r="53.000999" cy="62.166" cx="61.833" style="fill:url(#radialGradient4648)" sodipodi:cx="61.833" sodipodi:cy="62.166" sodipodi:rx="53.000999" sodipodi:ry="53.000999"/>
      </g>
    </g>
    <g style="fill:#80b3ff" transform="matrix(0.3051273,0,0,0.3051273,24.136393,23.071402)" id="g3233">
      <circle r="51.375" cy="61.875" cx="61.625" id="SVGID_4_" sodipodi:cx="61.625" sodipodi:cy="61.875" sodipodi:rx="51.375" sodipodi:ry="51.375" style="fill:#80b3ff"/>
    </g>
    <g transform="matrix(0.3051273,0,0,0.3051273,24.136393,23.071402)" id="g3236">
      <g id="g3238">
        <g id="g3240">
          <defs id="defs3840">
            <circle r="51.375" cy="61.875" cx="61.625" id="circle3842" sodipodi:cx="61.625" sodipodi:cy="61.875" sodipodi:rx="51.375" sodipodi:ry="51.375"/>
          </defs>
          <clipPath id="clipPath3844">
            <use id="use3846" overflow="visible" xlink:href="#SVGID_5_" style="overflow:visible" x="0" y="0" width="62" height="62"/>
          </clipPath>
          <linearGradient gradientTransform="matrix(1,0,0,-1,0,-538)" y2="-652.24951" x2="61.6255" y1="-551.25" x1="61.6255" gradientUnits="userSpaceOnUse" id="linearGradient3848">
            <stop id="stop3850" style="stop-color:#FFFFFF" offset="0"/>
            <stop id="stop3852" style="stop-color:#E1F1FF" offset="0.1478"/>
            <stop id="stop3854" style="stop-color:#D4EBFF" offset="0.2363"/>
            <stop id="stop3856" style="stop-color:#E3F2FF" offset="0.3505"/>
            <stop id="stop3858" style="stop-color:#F3F9FF" offset="0.5264"/>
            <stop id="stop3860" style="stop-color:#FCFEFF" offset="0.7262"/>
            <stop id="stop3862" style="stop-color:#FFFFFF" offset="1"/>
          </linearGradient>
          <circle id="circle3263" r="51.375" cy="63.875" cx="61.625" clip-path="url(#SVGID_6_)" style="fill:url(#linearGradient5796)" sodipodi:cx="61.625" sodipodi:cy="63.875" sodipodi:rx="51.375" sodipodi:ry="51.375"/>
        </g>
      </g>
    </g>
    <g transform="matrix(0.3051273,0,0,0.3051273,24.136393,23.071402)" id="g3265">
      <g id="g3267">
        <g id="g3269">
          <defs id="defs3868">
            <circle r="51.375" cy="61.875" cx="61.625" id="circle3870" sodipodi:cx="61.625" sodipodi:cy="61.875" sodipodi:rx="51.375" sodipodi:ry="51.375"/>
          </defs>
          <clipPath id="clipPath3872">
            <use id="use3874" overflow="visible" xlink:href="#SVGID_8_" style="overflow:visible" x="0" y="0" width="62" height="62"/>
          </clipPath>
          <linearGradient gradientTransform="translate(0,-665)" y2="728.875" x2="107.833" y1="728.875" x1="10.25" gradientUnits="userSpaceOnUse" id="linearGradient3876">
            <stop id="stop3878" style="stop-color:#FFFFFF" offset="0"/>
            <stop id="stop3880" style="stop-color:#EDF7FF" offset="0.1435"/>
            <stop id="stop3882" style="stop-color:#E0F2FF" offset="0.2802"/>
            <stop id="stop3884" style="stop-color:#E3F3FF" offset="0.3063"/>
            <stop id="stop3886" style="stop-color:#F3FAFF" offset="0.4942"/>
            <stop id="stop3888" style="stop-color:#FCFEFF" offset="0.7076"/>
            <stop id="stop3890" style="stop-color:#FFFFFF" offset="1"/>
          </linearGradient>
          <path id="path3292" d="M 107.833,41.917 L 63.5,62.5 L 61.625,115.25 C 33.252,115.25 10.25,92.249 10.25,63.875 C 10.25,35.501 33.252,12.5 61.625,12.5 C 82.552,12.5 99.823,23.965 107.833,41.917 z" enable-background="new    " clip-path="url(#SVGID_9_)" style="opacity:0.15;fill:url(#linearGradient5798)"/>
        </g>
      </g>
    </g>
    <g style="fill:#2a7fff" transform="matrix(0.3051273,0,0,0.3051273,24.136393,23.071402)" id="Layer_8">
      <g style="fill:#2a7fff" id="g3295">
        <g style="fill:#2a7fff" id="g3297">
          <path id="path3299" d="M 70.877,19.168 C 70.257,19.168 69.751,18.662 69.751,18.042 C 69.751,17.422 70.257,16.916 70.877,16.916 C 71.496,16.916 72.003,17.422 72.003,18.042 C 72.003,18.662 71.496,19.168 70.877,19.168 L 70.877,19.168 z" style="fill:#2a7fff"/>
        </g>
        <g style="fill:#2a7fff" id="g3301">
          <path id="path3303" d="M 66.044,18.582 C 65.423,18.582 64.919,18.078 64.919,17.459 C 64.919,16.838 65.423,16.334 66.044,16.334 C 66.663,16.334 67.167,16.838 67.167,17.459 C 67.167,18.078 66.663,18.582 66.044,18.582 L 66.044,18.582 z" style="fill:#2a7fff"/>
        </g>
        <g style="fill:#2a7fff" id="g3305">
          <path id="path3307" d="M 75.46,20.46 C 74.84,20.46 74.333,19.954 74.333,19.334 C 74.333,18.714 74.84,18.208 75.46,18.208 C 76.079,18.208 76.586,18.715 76.586,19.334 C 76.586,19.954 76.079,20.46 75.46,20.46 L 75.46,20.46 z" style="fill:#2a7fff"/>
        </g>
        <g style="fill:#2a7fff" id="g3309">
          <path id="path3311" d="M 79.628,22.084 C 79.008,22.084 78.501,21.579 78.501,20.959 C 78.501,20.339 79.008,19.832 79.628,19.832 C 80.248,19.832 80.753,20.339 80.753,20.959 C 80.753,21.579 80.248,22.084 79.628,22.084 L 79.628,22.084 z" style="fill:#2a7fff"/>
        </g>
        <g style="fill:#2a7fff" id="g3313">
          <path id="path3315" d="M 87.919,26.667 C 87.299,26.667 86.793,26.162 86.793,25.541 C 86.793,24.922 87.299,24.417 87.919,24.417 C 88.54,24.417 89.045,24.922 89.045,25.541 C 89.045,26.162 88.54,26.667 87.919,26.667 L 87.919,26.667 z" style="fill:#2a7fff"/>
        </g>
        <g style="fill:#2a7fff" id="g3317">
          <path id="path3319" d="M 95.002,33.126 C 94.383,33.126 93.877,32.62 93.877,32.001 C 93.877,31.381 94.383,30.876 95.002,30.876 C 95.621,30.876 96.127,31.381 96.127,32.001 C 96.127,32.62 95.621,33.126 95.002,33.126 L 95.002,33.126 z" style="fill:#2a7fff"/>
        </g>
        <g style="fill:#2a7fff" id="g3321">
          <path id="path3323" d="M 97.96,36.792 C 97.341,36.792 96.835,36.286 96.835,35.667 C 96.835,35.047 97.341,34.542 97.96,34.542 C 98.58,34.542 99.086,35.048 99.086,35.667 C 99.086,36.287 98.58,36.792 97.96,36.792 L 97.96,36.792 z" style="fill:#2a7fff"/>
        </g>
        <g style="fill:#2a7fff" id="g3325">
          <path id="path3327" d="M 102.836,45.167 C 102.216,45.167 101.712,44.663 101.712,44.043 C 101.712,43.421 102.216,42.917 102.836,42.917 C 103.457,42.917 103.962,43.421 103.962,44.043 C 103.962,44.663 103.457,45.167 102.836,45.167 L 102.836,45.167 z" style="fill:#2a7fff"/>
        </g>
        <g style="fill:#2a7fff" id="g3329">
          <path id="path3331" d="M 104.545,49.417 C 103.923,49.417 103.419,48.913 103.419,48.292 C 103.419,47.672 103.923,47.168 104.545,47.168 C 105.165,47.168 105.669,47.672 105.669,48.292 C 105.669,48.912 105.165,49.417 104.545,49.417 L 104.545,49.417 z" style="fill:#2a7fff"/>
        </g>
        <g style="fill:#2a7fff" id="g3333">
          <path id="path3335" d="M 105.545,53.708 C 104.923,53.708 104.419,53.204 104.419,52.583 C 104.419,51.961 104.923,51.457 105.545,51.457 C 106.165,51.457 106.669,51.961 106.669,52.583 C 106.669,53.204 106.165,53.708 105.545,53.708 L 105.545,53.708 z" style="fill:#2a7fff"/>
        </g>
        <g style="fill:#2a7fff" id="g3337">
          <path id="path3339" d="M 106.503,58.583 C 105.881,58.583 105.376,58.079 105.376,57.458 C 105.376,56.837 105.881,56.333 106.503,56.333 C 107.123,56.333 107.627,56.837 107.627,57.458 C 107.627,58.079 107.123,58.583 106.503,58.583 L 106.503,58.583 z" style="fill:#2a7fff"/>
        </g>
        <g style="fill:#2a7fff" id="g3341">
          <path id="path3343" d="M 106.42,68.084 C 105.8,68.084 105.295,67.579 105.295,66.959 C 105.295,66.339 105.8,65.835 106.42,65.835 C 107.04,65.835 107.544,66.339 107.544,66.959 C 107.544,67.579 107.04,68.084 106.42,68.084 L 106.42,68.084 z" style="fill:#2a7fff"/>
        </g>
        <g style="fill:#2a7fff" id="g3345">
          <path id="path3347" d="M 105.585,72.71 C 104.965,72.71 104.461,72.205 104.461,71.583 C 104.461,70.963 104.965,70.459 105.585,70.459 C 106.207,70.459 106.711,70.963 106.711,71.583 C 106.711,72.205 106.207,72.71 105.585,72.71 L 105.585,72.71 z" style="fill:#2a7fff"/>
        </g>
        <g style="fill:#2a7fff" id="g3349">
          <path id="path3351" d="M 104.418,77.46 C 103.798,77.46 103.294,76.956 103.294,76.334 C 103.294,75.714 103.798,75.209 104.418,75.209 C 105.04,75.209 105.545,75.714 105.545,76.334 C 105.545,76.956 105.04,77.46 104.418,77.46 L 104.418,77.46 z" style="fill:#2a7fff"/>
        </g>
        <g style="fill:#2a7fff" id="g3353">
          <path id="path3355" d="M 102.419,81.709 C 101.799,81.709 101.295,81.205 101.295,80.585 C 101.295,79.963 101.799,79.459 102.419,79.459 C 103.041,79.459 103.545,79.963 103.545,80.585 C 103.545,81.205 103.041,81.709 102.419,81.709 L 102.419,81.709 z" style="fill:#2a7fff"/>
        </g>
        <g style="fill:#2a7fff" id="g3357">
          <path id="path3359" d="M 97.959,90.042 C 97.34,90.042 96.834,89.536 96.834,88.917 C 96.834,88.298 97.34,87.791 97.959,87.791 C 98.579,87.791 99.085,88.298 99.085,88.917 C 99.085,89.536 98.579,90.042 97.959,90.042 L 97.959,90.042 z" style="fill:#2a7fff"/>
        </g>
        <g style="fill:#2a7fff" id="g3361">
          <path id="path3363" d="M 94.919,93.708 C 94.3,93.708 93.794,93.202 93.794,92.583 C 93.794,91.963 94.3,91.458 94.919,91.458 C 95.538,91.458 96.044,91.963 96.044,92.583 C 96.044,93.202 95.538,93.708 94.919,93.708 L 94.919,93.708 z" style="fill:#2a7fff"/>
        </g>
        <g style="fill:#2a7fff" id="g3365">
          <path id="path3367" d="M 91.629,97 C 91.009,97 90.503,96.494 90.503,95.875 C 90.503,95.256 91.009,94.75 91.629,94.75 C 92.248,94.75 92.754,95.256 92.754,95.875 C 92.754,96.494 92.248,97 91.629,97 L 91.629,97 z" style="fill:#2a7fff"/>
        </g>
        <g style="fill:#2a7fff" id="g3369">
          <path id="path3371" d="M 88.002,100.04 C 87.383,100.04 86.879,99.536 86.879,98.917 C 86.879,98.297 87.383,97.791 88.002,97.791 C 88.622,97.791 89.128,98.297 89.128,98.917 C 89.128,99.536 88.622,100.04 88.002,100.04 L 88.002,100.04 z" style="fill:#2a7fff"/>
        </g>
        <g style="fill:#2a7fff" id="g3373">
          <path id="path3375" d="M 79.545,104.709 C 78.923,104.709 78.418,104.204 78.418,103.582 C 78.418,102.963 78.923,102.458 79.545,102.458 C 80.164,102.458 80.669,102.963 80.669,103.582 C 80.669,104.204 80.164,104.709 79.545,104.709 L 79.545,104.709 z" style="fill:#2a7fff"/>
        </g>
        <g style="fill:#2a7fff" id="g3377">
          <path id="path3379" d="M 75.377,106.584 C 74.757,106.584 74.252,106.079 74.252,105.457 C 74.252,104.837 74.757,104.333 75.377,104.333 C 75.997,104.333 76.501,104.837 76.501,105.457 C 76.501,106.079 75.997,106.584 75.377,106.584 L 75.377,106.584 z" style="fill:#2a7fff"/>
        </g>
        <g style="fill:#2a7fff" id="g3381">
          <path id="path3383" d="M 70.585,107.625 C 69.965,107.625 69.461,107.121 69.461,106.501 C 69.461,105.881 69.965,105.376 70.585,105.376 C 71.205,105.376 71.709,105.881 71.709,106.501 C 71.709,107.121 71.205,107.625 70.585,107.625 L 70.585,107.625 z" style="fill:#2a7fff"/>
        </g>
        <g style="fill:#2a7fff" id="g3385">
          <path id="path3387" d="M 66.086,108.542 C 65.466,108.542 64.961,108.038 64.961,107.417 C 64.961,106.797 65.466,106.293 66.086,106.293 C 66.706,106.293 67.21,106.797 67.21,107.417 C 67.21,108.038 66.706,108.542 66.086,108.542 L 66.086,108.542 z" style="fill:#2a7fff"/>
        </g>
        <g style="fill:#2a7fff" id="g3389">
          <path id="path3391" d="M 51.542,19.167 C 50.922,19.167 50.417,18.662 50.417,18.042 C 50.417,17.422 50.922,16.917 51.542,16.917 C 52.162,16.917 52.667,17.422 52.667,18.042 C 52.667,18.662 52.163,19.167 51.542,19.167 L 51.542,19.167 z" style="fill:#2a7fff"/>
        </g>
        <g style="fill:#2a7fff" id="g3393">
          <path id="path3395" d="M 56.376,18.582 C 55.755,18.582 55.25,18.079 55.25,17.458 C 55.25,16.837 55.755,16.334 56.376,16.334 C 56.997,16.334 57.5,16.837 57.5,17.458 C 57.5,18.079 56.997,18.582 56.376,18.582 L 56.376,18.582 z" style="fill:#2a7fff"/>
        </g>
        <g style="fill:#2a7fff" id="g3397">
          <path id="path3399" d="M 46.959,20.458 C 46.339,20.458 45.834,19.953 45.834,19.333 C 45.834,18.713 46.338,18.208 46.959,18.208 C 47.579,18.208 48.084,18.713 48.084,19.333 C 48.084,19.953 47.579,20.458 46.959,20.458 L 46.959,20.458 z" style="fill:#2a7fff"/>
        </g>
        <g style="fill:#2a7fff" id="g3401">
          <path id="path3403" d="M 42.792,22.084 C 42.173,22.084 41.668,21.579 41.668,20.958 C 41.668,20.338 42.172,19.834 42.792,19.834 C 43.414,19.834 43.918,20.338 43.918,20.958 C 43.918,21.579 43.413,22.084 42.792,22.084 L 42.792,22.084 z" style="fill:#2a7fff"/>
        </g>
        <g style="fill:#2a7fff" id="g3405">
          <path id="path3407" d="M 34.5,26.667 C 33.879,26.667 33.375,26.163 33.375,25.542 C 33.375,24.921 33.879,24.417 34.5,24.417 C 35.121,24.417 35.625,24.921 35.625,25.542 C 35.625,26.163 35.121,26.667 34.5,26.667 L 34.5,26.667 z" style="fill:#2a7fff"/>
        </g>
        <g style="fill:#2a7fff" id="g3409">
          <path id="path3411" d="M 27.417,33.126 C 26.796,33.126 26.291,32.62 26.291,32 C 26.291,31.379 26.797,30.875 27.417,30.875 C 28.037,30.875 28.542,31.379 28.542,32 C 28.542,32.621 28.038,33.126 27.417,33.126 L 27.417,33.126 z" style="fill:#2a7fff"/>
        </g>
        <g style="fill:#2a7fff" id="g3413">
          <path id="path3415" d="M 30.979,29.689 C 30.358,29.689 29.854,29.183 29.854,28.563 C 29.854,27.943 30.358,27.438 30.979,27.438 C 31.6,27.438 32.103,27.942 32.103,28.563 C 32.103,29.184 31.6,29.689 30.979,29.689 L 30.979,29.689 z" style="fill:#2a7fff"/>
        </g>
        <g style="fill:#2a7fff" id="g3417">
          <path id="path3419" d="M 24.457,36.792 C 23.838,36.792 23.334,36.288 23.334,35.667 C 23.334,35.046 23.838,34.542 24.457,34.542 C 25.078,34.542 25.582,35.046 25.582,35.667 C 25.582,36.288 25.078,36.792 24.457,36.792 L 24.457,36.792 z" style="fill:#2a7fff"/>
        </g>
        <g style="fill:#2a7fff" id="g3421">
          <path id="path3423" d="M 19.583,45.167 C 18.963,45.167 18.458,44.663 18.458,44.041 C 18.458,43.421 18.963,42.916 19.583,42.916 C 20.205,42.916 20.709,43.421 20.709,44.041 C 20.708,44.663 20.204,45.167 19.583,45.167 L 19.583,45.167 z" style="fill:#2a7fff"/>
        </g>
        <g style="fill:#2a7fff" id="g3425">
          <path id="path3427" d="M 17.875,49.417 C 17.255,49.417 16.75,48.912 16.75,48.292 C 16.75,47.672 17.255,47.167 17.875,47.167 C 18.495,47.167 19,47.672 19,48.292 C 18.999,48.912 18.494,49.417 17.875,49.417 L 17.875,49.417 z" style="fill:#2a7fff"/>
        </g>
        <g style="fill:#2a7fff" id="g3429">
          <path id="path3431" d="M 16.875,53.708 C 16.255,53.708 15.75,53.203 15.75,52.583 C 15.75,51.963 16.255,51.46 16.875,51.46 C 17.495,51.46 17.999,51.963 17.999,52.583 C 17.999,53.203 17.496,53.708 16.875,53.708 L 16.875,53.708 z" style="fill:#2a7fff"/>
        </g>
        <g style="fill:#2a7fff" id="g3433">
          <path id="path3435" d="M 15.917,58.584 C 15.296,58.584 14.793,58.078 14.793,57.458 C 14.793,56.837 15.296,56.334 15.917,56.334 C 16.538,56.334 17.041,56.837 17.041,57.458 C 17.041,58.078 16.537,58.584 15.917,58.584 L 15.917,58.584 z" style="fill:#2a7fff"/>
        </g>
        <g style="fill:#2a7fff" id="g3437">
          <path id="path3439" d="M 16,68.083 C 15.381,68.083 14.876,67.578 14.876,66.959 C 14.876,66.338 15.38,65.834 16,65.834 C 16.621,65.834 17.125,66.338 17.125,66.959 C 17.125,67.578 16.621,68.083 16,68.083 L 16,68.083 z" style="fill:#2a7fff"/>
        </g>
        <g style="fill:#2a7fff" id="g3441">
          <path id="path3443" d="M 16.833,72.711 C 16.213,72.711 15.707,72.204 15.707,71.585 C 15.707,70.965 16.213,70.459 16.833,70.459 C 17.453,70.459 17.959,70.965 17.959,71.585 C 17.959,72.204 17.453,72.711 16.833,72.711 L 16.833,72.711 z" style="fill:#2a7fff"/>
        </g>
        <g style="fill:#2a7fff" id="g3445">
          <path id="path3447" d="M 18,77.46 C 17.38,77.46 16.873,76.953 16.873,76.333 C 16.873,75.714 17.38,75.209 18,75.209 C 18.62,75.209 19.126,75.714 19.126,76.333 C 19.126,76.953 18.62,77.46 18,77.46 L 18,77.46 z" style="fill:#2a7fff"/>
        </g>
        <g style="fill:#2a7fff" id="g3449">
          <path id="path3451" d="M 19.999,81.709 C 19.379,81.709 18.874,81.205 18.874,80.584 C 18.874,79.964 19.379,79.459 19.999,79.459 C 20.62,79.459 21.126,79.964 21.126,80.584 C 21.126,81.205 20.62,81.709 19.999,81.709 L 19.999,81.709 z" style="fill:#2a7fff"/>
        </g>
        <g style="fill:#2a7fff" id="g3453">
          <path id="path3455" d="M 24.458,90.043 C 23.839,90.043 23.334,89.538 23.334,88.917 C 23.334,88.296 23.839,87.791 24.458,87.791 C 25.079,87.791 25.584,88.296 25.584,88.917 C 25.584,89.538 25.079,90.043 24.458,90.043 L 24.458,90.043 z" style="fill:#2a7fff"/>
        </g>
        <g style="fill:#2a7fff" id="g3457">
          <path id="path3459" d="M 27.5,93.708 C 26.881,93.708 26.375,93.202 26.375,92.583 C 26.375,91.962 26.881,91.457 27.5,91.457 C 28.119,91.457 28.625,91.962 28.625,92.583 C 28.625,93.202 28.119,93.708 27.5,93.708 L 27.5,93.708 z" style="fill:#2a7fff"/>
        </g>
        <g style="fill:#2a7fff" id="g3461">
          <path id="path3463" d="M 30.79,97 C 30.171,97 29.665,96.494 29.665,95.875 C 29.665,95.256 30.171,94.75 30.79,94.75 C 31.41,94.75 31.915,95.256 31.915,95.875 C 31.915,96.494 31.41,97 30.79,97 L 30.79,97 z" style="fill:#2a7fff"/>
        </g>
        <g style="fill:#2a7fff" id="g3465">
          <path id="path3467" d="M 34.417,100.04 C 33.797,100.04 33.292,99.536 33.292,98.917 C 33.292,98.297 33.798,97.791 34.417,97.791 C 35.036,97.791 35.541,98.297 35.541,98.917 C 35.541,99.536 35.037,100.04 34.417,100.04 L 34.417,100.04 z" style="fill:#2a7fff"/>
        </g>
        <g style="fill:#2a7fff" id="g3469">
          <path id="path3471" d="M 42.875,104.709 C 42.255,104.709 41.751,104.204 41.751,103.582 C 41.751,102.963 42.255,102.458 42.875,102.458 C 43.495,102.458 43.999,102.963 43.999,103.582 C 43.999,104.204 43.495,104.709 42.875,104.709 L 42.875,104.709 z" style="fill:#2a7fff"/>
        </g>
        <g style="fill:#2a7fff" id="g3473">
          <path id="path3475" d="M 47.042,106.584 C 46.42,106.584 45.916,106.079 45.916,105.457 C 45.916,104.837 46.42,104.333 47.042,104.333 C 47.662,104.333 48.167,104.837 48.167,105.457 C 48.167,106.079 47.663,106.584 47.042,106.584 L 47.042,106.584 z" style="fill:#2a7fff"/>
        </g>
        <g style="fill:#2a7fff" id="g3477">
          <path id="path3479" d="M 51.834,107.625 C 51.214,107.625 50.709,107.121 50.709,106.501 C 50.709,105.881 51.213,105.376 51.834,105.376 C 52.455,105.376 52.959,105.881 52.959,106.501 C 52.959,107.121 52.455,107.625 51.834,107.625 L 51.834,107.625 z" style="fill:#2a7fff"/>
        </g>
        <g style="fill:#2a7fff" id="g3481">
          <path id="path3483" d="M 56.334,108.542 C 55.714,108.542 55.209,108.038 55.209,107.417 C 55.209,106.797 55.713,106.293 56.334,106.293 C 56.955,106.293 57.459,106.797 57.459,107.417 C 57.458,108.038 56.954,108.542 56.334,108.542 L 56.334,108.542 z" style="fill:#2a7fff"/>
        </g>
      </g>
    </g>
    <g style="fill:#0000ff" transform="matrix(0.3051273,0,0,0.3051273,24.136393,23.071402)" id="g3989">
      <polygon id="polygon3991" points="60.874,111.25 60.874,102.624 62.875,102.624 62.875,111.25 60.874,111.25 " style="fill:#2a7fff"/>
      <polygon id="polygon3993" points="60.874,21.458 60.874,12.5 62.874,12.5 62.874,21.458 60.874,21.458 " style="fill:#2a7fff"/>
      <polygon id="polygon3995" points="102.395,63.104 102.395,61.103 111.021,61.103 111.021,63.104 102.395,63.104 " style="fill:#2a7fff"/>
      <polygon id="polygon3997" points="12.728,63.104 12.728,61.104 21.354,61.104 21.354,63.104 12.728,63.104 " style="fill:#2a7fff"/>
    </g>
    <g style="fill:#5599ff" transform="matrix(0.3051273,0,0,0.3051273,24.136393,23.071402)" id="Layer_9">
      <path id="path3495" d="M 26.359,42.393 L 27.226,40.874 L 19.472,36.439 L 18.604,37.956 L 18.93,38.144 L 26.359,42.393 z M 36.423,19.53 L 36.612,19.854 L 40.893,27.262 L 42.409,26.387 L 37.937,18.655 L 36.423,19.53 z M 36.423,104.372 L 36.747,104.559 L 37.941,105.244 L 42.375,97.485 L 40.856,96.619 L 36.423,104.372 z M 18.636,85.906 L 18.824,86.232 L 19.511,87.42 L 27.246,82.946 L 26.368,81.43 L 18.636,85.906 z M 97.217,42.392 L 104.975,37.958 L 104.104,36.439 L 96.35,40.875 L 96.538,41.2 L 97.217,42.392 z M 82.686,27.265 L 87.155,19.528 L 85.637,18.654 L 81.169,26.387 L 81.493,26.577 L 82.686,27.265 z M 81.202,97.484 L 81.389,97.81 L 85.634,105.24 L 87.155,104.372 L 82.721,96.615 L 81.202,97.484 z M 96.332,82.95 L 96.654,83.138 L 104.062,87.42 L 104.943,85.903 L 97.206,81.43 L 96.332,82.95 z" style="fill:#5599ff"/>
    </g>
    <g transform="matrix(0.3051273,0,0,0.3051273,24.136393,23.071402)" id="Layer_10">
      <path id="path4002" d="M 62.93,54.622 C 63.423,55.61 63.022,56.811 62.034,57.305 L 59.946,58.347 C 58.958,58.84 57.757,58.439 57.263,57.451 L 51.904,46.714 C 51.411,45.726 51.812,44.525 52.8,44.031 L 54.888,42.989 C 55.876,42.496 57.077,42.897 57.571,43.885 L 62.93,54.622 z" style="fill:#5ff6ff;stroke:#5ff6ff;stroke-width:0.97221899"/>
      <line id="line4004" y2="104.75" x2="84.25" y1="56.396" x1="60.375" style="fill:none;stroke:#5ff6ff;stroke-width:1.94443798;stroke-linecap:round;stroke-linejoin:round"/>
    </g>
    <g style="stroke:#2e1de4;stroke-width:1.27266729;stroke-miterlimit:4;stroke-dasharray:none;stroke-opacity:1" transform="matrix(0.3051273,0,0,0.3051273,24.136393,23.071402)" id="Layer_11">
      <g style="stroke:#2e1de4;stroke-width:1.27266729;stroke-miterlimit:4;stroke-dasharray:none;stroke-opacity:1" id="g3503">
        <linearGradient gradientTransform="matrix(0.9796,-0.2008,-0.2008,-0.9796,63.7493,-682.0253)" y2="-729.13458" x2="-160.0361" y1="-726.61621" x1="-160.0361" gradientUnits="userSpaceOnUse" id="linearGradient4008">
          <stop id="stop4010" style="stop-color:#524AC9" offset="0"/>
          <stop id="stop4012" style="stop-color:#5855BC" offset="0.0957"/>
          <stop id="stop4014" style="stop-color:#5D60AF" offset="0.2352"/>
          <stop id="stop4016" style="stop-color:#5F64AB" offset="0.3681"/>
          <stop id="stop4018" style="stop-color:#190C7F" offset="0.7253"/>
        </linearGradient>
        <path id="path4020" d="M 69.033,59.994 C 69.213,60.873 68.646,61.731 67.767,61.912 L 39.205,67.792 C 38.326,67.973 37.467,67.405 37.287,66.525 L 37.287,66.525 C 37.107,65.646 37.673,64.787 38.552,64.607 L 67.11,58.728 C 67.994,58.548 68.854,59.114 69.033,59.994 L 69.033,59.994 z" style="fill:url(#linearGradient4654);stroke:#2e1de4;stroke-width:1.27266729;stroke-miterlimit:4;stroke-dasharray:none;stroke-opacity:1"/>
        <linearGradient gradientTransform="matrix(0.6552,-0.7555,-0.7555,-0.6552,80.6896,-1161.2106)" y2="-789.15601" x2="-915.77289" y1="-785.93951" x1="-915.77289" gradientUnits="userSpaceOnUse" id="linearGradient4022">
          <stop id="stop4024" style="stop-color:#524AC9" offset="0"/>
          <stop id="stop4026" style="stop-color:#5855BC" offset="0.0957"/>
          <stop id="stop4028" style="stop-color:#5D60AF" offset="0.2352"/>
          <stop id="stop4030" style="stop-color:#5F64AB" offset="0.3681"/>
          <stop id="stop4032" style="stop-color:#190C7F" offset="0.7253"/>
        </linearGradient>
        <path id="path4034" d="M 93.373,26.619 C 93.79,26.981 93.836,27.612 93.475,28.029 L 60.017,67.152 C 59.655,67.57 59.023,67.615 58.606,67.254 L 57.851,66.598 C 57.434,66.237 57.388,65.606 57.75,65.188 L 91.208,26.064 C 91.568,25.646 92.201,25.602 92.617,25.963 L 93.373,26.619 z" style="fill:url(#linearGradient4656);stroke:#2e1de4;stroke-width:1.27266729;stroke-miterlimit:4;stroke-dasharray:none;stroke-opacity:1"/>
      </g>
    </g>
    <g transform="matrix(0.3051273,0,0,0.3051273,24.136393,23.071402)" id="Layer_12">
      <g id="g3532">
        <linearGradient gradientTransform="matrix(1,0,0,-1,0,-538)" y2="-603.18707" x2="62.4063" y1="-595" x1="62.4063" gradientUnits="userSpaceOnUse" id="linearGradient4038">
          <stop id="stop4040" style="stop-color:#8BA4D6" offset="0"/>
          <stop id="stop4042" style="stop-color:#1B3EA6" offset="1"/>
        </linearGradient>
        <circle id="circle4044" r="4.4689999" cy="61.280998" cx="62.405998" style="fill:url(#linearGradient4658)" sodipodi:cx="62.405998" sodipodi:cy="61.280998" sodipodi:rx="4.4689999" sodipodi:ry="4.4689999"/>
      </g>
    </g>
    <g transform="matrix(0.3051273,0,0,0.3051273,24.136393,23.071402)" id="Layer_13">
      <g id="g4047">
        <radialGradient gradientUnits="userSpaceOnUse" gradientTransform="matrix(1,0,0,-1,0,-538)" r="7.5655999" cy="-595.29199" cx="61.3652" id="radialGradient4049">
          <stop id="stop4051" style="stop-color:#FFFFFF" offset="0"/>
          <stop id="stop4053" style="stop-color:#F6FAFF" offset="0.0515"/>
          <stop id="stop4055" style="stop-color:#DDEEFF" offset="0.1361"/>
          <stop id="stop4057" style="stop-color:#B5D9FF" offset="0.2432"/>
          <stop id="stop4059" style="stop-color:#7DBDFF" offset="0.3688"/>
          <stop id="stop4061" style="stop-color:#3699FF" offset="0.5081"/>
          <stop id="stop4063" style="stop-color:#1487FF" offset="0.5714"/>
          <stop id="stop4065" style="stop-color:#0F85FF" offset="0.8132"/>
          <stop id="stop4067" style="stop-color:#3397FF" offset="0.967"/>
        </radialGradient>
        <circle id="circle4069" r="3.75" cy="61.292" cx="62.365002" style="fill:url(#radialGradient4087)" sodipodi:cx="62.365002" sodipodi:cy="61.292" sodipodi:rx="3.75" sodipodi:ry="3.75"/>
      </g>
    </g>
  </g>
</svg>